<mxfile host="app.diagrams.net" modified="2024-03-24T19:19:51.683Z" agent="Mozilla/5.0 (X11; Linux x86_64) AppleWebKit/537.36 (KHTML, like Gecko) Chrome/118.0.5993.675 YaBrowser/23.11.1.675 (beta) Yowser/2.5 Safari/537.36" etag="fTyDxBPWshJBbijlMIcc" version="24.1.0" type="github">
  <diagram name="Страница — 1" id="rwgA5BPk8sBzmZya6ONt">
    <mxGraphModel dx="1755" dy="1072" grid="1" gridSize="10" guides="1" tooltips="1" connect="1" arrows="1" fold="1" page="1" pageScale="1" pageWidth="827" pageHeight="1169" math="0" shadow="0">
      <root>
        <mxCell id="0" />
        <mxCell id="1" parent="0" />
        <mxCell id="J2u4H_Q9Re1nwNwx0uTC-20" value="" style="rounded=1;whiteSpace=wrap;html=1;" vertex="1" parent="1">
          <mxGeometry x="10" y="180" width="210" height="200" as="geometry" />
        </mxCell>
        <mxCell id="uoVfsjoM4IQGvuYFjnLu-93" value="" style="rounded=1;whiteSpace=wrap;html=1;" parent="1" vertex="1">
          <mxGeometry x="110" y="1270" width="340" height="160" as="geometry" />
        </mxCell>
        <mxCell id="uoVfsjoM4IQGvuYFjnLu-91" value="" style="rounded=1;whiteSpace=wrap;html=1;" parent="1" vertex="1">
          <mxGeometry x="220" y="420" width="522" height="260" as="geometry" />
        </mxCell>
        <mxCell id="uoVfsjoM4IQGvuYFjnLu-90" value="" style="rounded=1;whiteSpace=wrap;html=1;" parent="1" vertex="1">
          <mxGeometry x="242" y="180" width="510" height="190" as="geometry" />
        </mxCell>
        <mxCell id="uoVfsjoM4IQGvuYFjnLu-15" value="&lt;font style=&quot;font-size: 18px;&quot;&gt;Mail service&lt;/font&gt;" style="rounded=1;whiteSpace=wrap;html=1;" parent="1" vertex="1">
          <mxGeometry x="130" y="1310" width="120" height="60" as="geometry" />
        </mxCell>
        <mxCell id="uoVfsjoM4IQGvuYFjnLu-20" value="&lt;font style=&quot;font-size: 18px;&quot;&gt;Gateway&lt;/font&gt;" style="rounded=1;whiteSpace=wrap;html=1;" parent="1" vertex="1">
          <mxGeometry x="70" y="555" width="120" height="60" as="geometry" />
        </mxCell>
        <mxCell id="uoVfsjoM4IQGvuYFjnLu-24" value="" style="endArrow=classic;html=1;rounded=0;entryX=-0.002;entryY=0.821;entryDx=0;entryDy=0;entryPerimeter=0;" parent="1" target="uoVfsjoM4IQGvuYFjnLu-90" edge="1">
          <mxGeometry width="50" height="50" relative="1" as="geometry">
            <mxPoint x="150" y="555" as="sourcePoint" />
            <mxPoint x="200" y="505" as="targetPoint" />
          </mxGeometry>
        </mxCell>
        <mxCell id="uoVfsjoM4IQGvuYFjnLu-25" value="" style="endArrow=classic;html=1;rounded=0;exitX=1;exitY=0.5;exitDx=0;exitDy=0;entryX=-0.002;entryY=0.646;entryDx=0;entryDy=0;entryPerimeter=0;" parent="1" source="uoVfsjoM4IQGvuYFjnLu-20" target="uoVfsjoM4IQGvuYFjnLu-91" edge="1">
          <mxGeometry width="50" height="50" relative="1" as="geometry">
            <mxPoint x="440" y="530" as="sourcePoint" />
            <mxPoint x="350" y="380" as="targetPoint" />
          </mxGeometry>
        </mxCell>
        <mxCell id="uoVfsjoM4IQGvuYFjnLu-26" value="" style="endArrow=classic;html=1;rounded=0;exitX=0.75;exitY=1;exitDx=0;exitDy=0;entryX=-0.008;entryY=0.395;entryDx=0;entryDy=0;entryPerimeter=0;" parent="1" source="uoVfsjoM4IQGvuYFjnLu-20" target="uoVfsjoM4IQGvuYFjnLu-57" edge="1">
          <mxGeometry width="50" height="50" relative="1" as="geometry">
            <mxPoint x="390" y="570" as="sourcePoint" />
            <mxPoint x="440" y="520" as="targetPoint" />
          </mxGeometry>
        </mxCell>
        <mxCell id="uoVfsjoM4IQGvuYFjnLu-27" value="" style="endArrow=classic;html=1;rounded=0;" parent="1" source="uoVfsjoM4IQGvuYFjnLu-20" edge="1">
          <mxGeometry width="50" height="50" relative="1" as="geometry">
            <mxPoint x="390" y="800" as="sourcePoint" />
            <mxPoint x="140" y="1260" as="targetPoint" />
          </mxGeometry>
        </mxCell>
        <mxCell id="uoVfsjoM4IQGvuYFjnLu-30" value="&lt;span style=&quot;font-size: 18px;&quot;&gt;Object storage(s3)&lt;/span&gt;" style="rounded=1;whiteSpace=wrap;html=1;" parent="1" vertex="1">
          <mxGeometry x="592" y="535" width="120" height="60" as="geometry" />
        </mxCell>
        <mxCell id="uoVfsjoM4IQGvuYFjnLu-31" value="" style="endArrow=classic;html=1;rounded=0;exitX=1;exitY=0.66;exitDx=0;exitDy=0;exitPerimeter=0;entryX=0.017;entryY=0.65;entryDx=0;entryDy=0;entryPerimeter=0;" parent="1" source="uoVfsjoM4IQGvuYFjnLu-6" target="uoVfsjoM4IQGvuYFjnLu-30" edge="1">
          <mxGeometry width="50" height="50" relative="1" as="geometry">
            <mxPoint x="422" y="525" as="sourcePoint" />
            <mxPoint x="472" y="475" as="targetPoint" />
          </mxGeometry>
        </mxCell>
        <mxCell id="uoVfsjoM4IQGvuYFjnLu-36" value="" style="group" parent="1" vertex="1" connectable="0">
          <mxGeometry x="254" y="210" width="280" height="140" as="geometry" />
        </mxCell>
        <mxCell id="uoVfsjoM4IQGvuYFjnLu-4" value="&lt;font style=&quot;font-size: 18px;&quot;&gt;User service&lt;/font&gt;" style="rounded=1;whiteSpace=wrap;html=1;" parent="uoVfsjoM4IQGvuYFjnLu-36" vertex="1">
          <mxGeometry width="280" height="140" as="geometry" />
        </mxCell>
        <mxCell id="uoVfsjoM4IQGvuYFjnLu-32" value="&lt;font style=&quot;font-size: 18px;&quot;&gt;BlogUser&lt;/font&gt;" style="rounded=1;whiteSpace=wrap;html=1;" parent="uoVfsjoM4IQGvuYFjnLu-36" vertex="1">
          <mxGeometry x="50.26" y="6.89" width="159.74" height="43.11" as="geometry" />
        </mxCell>
        <mxCell id="uoVfsjoM4IQGvuYFjnLu-33" value="&lt;font style=&quot;font-size: 18px;&quot;&gt;Subscription&lt;/font&gt;" style="rounded=1;whiteSpace=wrap;html=1;" parent="uoVfsjoM4IQGvuYFjnLu-36" vertex="1">
          <mxGeometry x="68" y="90" width="159.74" height="34.22" as="geometry" />
        </mxCell>
        <mxCell id="uoVfsjoM4IQGvuYFjnLu-45" style="edgeStyle=orthogonalEdgeStyle;rounded=0;orthogonalLoop=1;jettySize=auto;html=1;exitX=0.5;exitY=1;exitDx=0;exitDy=0;" parent="uoVfsjoM4IQGvuYFjnLu-36" source="uoVfsjoM4IQGvuYFjnLu-4" target="uoVfsjoM4IQGvuYFjnLu-4" edge="1">
          <mxGeometry relative="1" as="geometry" />
        </mxCell>
        <mxCell id="uoVfsjoM4IQGvuYFjnLu-48" value="&lt;span style=&quot;font-size: 18px;&quot;&gt;PostgreSQL&lt;/span&gt;" style="rounded=1;whiteSpace=wrap;html=1;" parent="1" vertex="1">
          <mxGeometry x="592" y="240" width="120" height="60" as="geometry" />
        </mxCell>
        <mxCell id="uoVfsjoM4IQGvuYFjnLu-50" value="" style="endArrow=classic;html=1;rounded=0;entryX=0;entryY=0.75;entryDx=0;entryDy=0;exitX=1.004;exitY=0.523;exitDx=0;exitDy=0;exitPerimeter=0;" parent="1" source="uoVfsjoM4IQGvuYFjnLu-4" target="uoVfsjoM4IQGvuYFjnLu-48" edge="1">
          <mxGeometry width="50" height="50" relative="1" as="geometry">
            <mxPoint x="632" y="580" as="sourcePoint" />
            <mxPoint x="682" y="530" as="targetPoint" />
          </mxGeometry>
        </mxCell>
        <mxCell id="uoVfsjoM4IQGvuYFjnLu-54" value="" style="endArrow=classic;html=1;rounded=0;" parent="1" edge="1">
          <mxGeometry width="50" height="50" relative="1" as="geometry">
            <mxPoint x="10" y="585" as="sourcePoint" />
            <mxPoint x="70" y="585" as="targetPoint" />
          </mxGeometry>
        </mxCell>
        <mxCell id="uoVfsjoM4IQGvuYFjnLu-57" value="" style="rounded=1;whiteSpace=wrap;html=1;" parent="1" vertex="1">
          <mxGeometry x="202" y="720" width="510" height="430" as="geometry" />
        </mxCell>
        <mxCell id="uoVfsjoM4IQGvuYFjnLu-46" value="&lt;span style=&quot;font-size: 18px;&quot;&gt;PostgreSQL&lt;/span&gt;" style="rounded=1;whiteSpace=wrap;html=1;" parent="1" vertex="1">
          <mxGeometry x="572" y="890" width="120" height="60" as="geometry" />
        </mxCell>
        <mxCell id="uoVfsjoM4IQGvuYFjnLu-47" value="" style="endArrow=classic;html=1;rounded=0;" parent="1" source="uoVfsjoM4IQGvuYFjnLu-7" target="uoVfsjoM4IQGvuYFjnLu-46" edge="1">
          <mxGeometry width="50" height="50" relative="1" as="geometry">
            <mxPoint x="102" y="720" as="sourcePoint" />
            <mxPoint x="239" y="891" as="targetPoint" />
          </mxGeometry>
        </mxCell>
        <mxCell id="uoVfsjoM4IQGvuYFjnLu-7" value="&lt;font style=&quot;font-size: 18px;&quot;&gt;Blog service&lt;/font&gt;" style="rounded=1;whiteSpace=wrap;html=1;" parent="1" vertex="1">
          <mxGeometry x="242" y="740" width="250" height="350" as="geometry" />
        </mxCell>
        <mxCell id="uoVfsjoM4IQGvuYFjnLu-8" value="&lt;font style=&quot;font-size: 18px;&quot;&gt;Comment&lt;/font&gt;" style="rounded=1;whiteSpace=wrap;html=1;" parent="1" vertex="1">
          <mxGeometry x="302" y="750" width="120" height="60" as="geometry" />
        </mxCell>
        <mxCell id="uoVfsjoM4IQGvuYFjnLu-11" value="&lt;span style=&quot;font-size: 18px;&quot;&gt;BlogPost&lt;/span&gt;" style="rounded=1;whiteSpace=wrap;html=1;" parent="1" vertex="1">
          <mxGeometry x="302" y="825" width="120" height="60" as="geometry" />
        </mxCell>
        <mxCell id="uoVfsjoM4IQGvuYFjnLu-14" value="&lt;span style=&quot;font-size: 18px;&quot;&gt;Like&lt;/span&gt;" style="rounded=1;whiteSpace=wrap;html=1;" parent="1" vertex="1">
          <mxGeometry x="302" y="950" width="120" height="60" as="geometry" />
        </mxCell>
        <mxCell id="uoVfsjoM4IQGvuYFjnLu-28" value="&lt;span style=&quot;font-size: 18px;&quot;&gt;PostCategory&lt;/span&gt;" style="rounded=1;whiteSpace=wrap;html=1;" parent="1" vertex="1">
          <mxGeometry x="302" y="1020" width="120" height="60" as="geometry" />
        </mxCell>
        <mxCell id="uoVfsjoM4IQGvuYFjnLu-6" value="&lt;font style=&quot;font-size: 18px;&quot;&gt;Media service&lt;/font&gt;" style="rounded=1;whiteSpace=wrap;html=1;" parent="1" vertex="1">
          <mxGeometry x="292" y="440" width="216" height="200" as="geometry" />
        </mxCell>
        <mxCell id="uoVfsjoM4IQGvuYFjnLu-18" value="&lt;font style=&quot;font-size: 18px;&quot;&gt;Video&lt;/font&gt;" style="rounded=1;whiteSpace=wrap;html=1;" parent="1" vertex="1">
          <mxGeometry x="333" y="460" width="120" height="60" as="geometry" />
        </mxCell>
        <mxCell id="uoVfsjoM4IQGvuYFjnLu-19" value="&lt;font style=&quot;font-size: 18px;&quot;&gt;Image&lt;/font&gt;" style="rounded=1;whiteSpace=wrap;html=1;" parent="1" vertex="1">
          <mxGeometry x="340" y="570" width="120" height="60" as="geometry" />
        </mxCell>
        <mxCell id="uoVfsjoM4IQGvuYFjnLu-95" value="&lt;span style=&quot;font-size: 18px;&quot;&gt;RabbitMQ&lt;/span&gt;" style="rounded=1;whiteSpace=wrap;html=1;" parent="1" vertex="1">
          <mxGeometry x="307" y="1310" width="120" height="60" as="geometry" />
        </mxCell>
        <mxCell id="uoVfsjoM4IQGvuYFjnLu-98" value="" style="endArrow=classic;html=1;rounded=0;exitX=1;exitY=0.75;exitDx=0;exitDy=0;entryX=0;entryY=0.75;entryDx=0;entryDy=0;" parent="1" source="uoVfsjoM4IQGvuYFjnLu-15" target="uoVfsjoM4IQGvuYFjnLu-95" edge="1">
          <mxGeometry width="50" height="50" relative="1" as="geometry">
            <mxPoint x="740" y="790" as="sourcePoint" />
            <mxPoint x="790" y="740" as="targetPoint" />
          </mxGeometry>
        </mxCell>
        <mxCell id="uoVfsjoM4IQGvuYFjnLu-101" value="" style="curved=1;endArrow=classic;html=1;rounded=0;entryX=1;entryY=0.25;entryDx=0;entryDy=0;exitX=1.007;exitY=0.361;exitDx=0;exitDy=0;exitPerimeter=0;" parent="1" source="uoVfsjoM4IQGvuYFjnLu-90" target="uoVfsjoM4IQGvuYFjnLu-93" edge="1">
          <mxGeometry width="50" height="50" relative="1" as="geometry">
            <mxPoint x="690" y="140" as="sourcePoint" />
            <mxPoint x="770" y="550" as="targetPoint" />
            <Array as="points">
              <mxPoint x="890" y="770" />
              <mxPoint x="640" y="1370" />
            </Array>
          </mxGeometry>
        </mxCell>
        <mxCell id="uoVfsjoM4IQGvuYFjnLu-102" value="" style="endArrow=classic;html=1;rounded=0;entryX=0.75;entryY=0;entryDx=0;entryDy=0;" parent="1" source="uoVfsjoM4IQGvuYFjnLu-57" target="uoVfsjoM4IQGvuYFjnLu-93" edge="1">
          <mxGeometry width="50" height="50" relative="1" as="geometry">
            <mxPoint x="710" y="740" as="sourcePoint" />
            <mxPoint x="760" y="690" as="targetPoint" />
          </mxGeometry>
        </mxCell>
        <mxCell id="uoVfsjoM4IQGvuYFjnLu-105" value="" style="endArrow=classic;html=1;rounded=0;exitX=0.697;exitY=1.006;exitDx=0;exitDy=0;exitPerimeter=0;entryX=0.727;entryY=0;entryDx=0;entryDy=0;entryPerimeter=0;" parent="1" source="uoVfsjoM4IQGvuYFjnLu-90" target="uoVfsjoM4IQGvuYFjnLu-91" edge="1">
          <mxGeometry width="50" height="50" relative="1" as="geometry">
            <mxPoint x="500" y="380" as="sourcePoint" />
            <mxPoint x="550" y="330" as="targetPoint" />
          </mxGeometry>
        </mxCell>
        <mxCell id="uoVfsjoM4IQGvuYFjnLu-106" value="" style="endArrow=classic;html=1;rounded=0;exitX=0.89;exitY=0;exitDx=0;exitDy=0;exitPerimeter=0;entryX=0.837;entryY=0.995;entryDx=0;entryDy=0;entryPerimeter=0;" parent="1" source="uoVfsjoM4IQGvuYFjnLu-57" target="uoVfsjoM4IQGvuYFjnLu-91" edge="1">
          <mxGeometry width="50" height="50" relative="1" as="geometry">
            <mxPoint x="690" y="730" as="sourcePoint" />
            <mxPoint x="740" y="680" as="targetPoint" />
          </mxGeometry>
        </mxCell>
        <mxCell id="J2u4H_Q9Re1nwNwx0uTC-2" value="&lt;span style=&quot;font-size: 18px;&quot;&gt;Auth service&lt;/span&gt;" style="rounded=1;whiteSpace=wrap;html=1;" vertex="1" parent="1">
          <mxGeometry x="40" y="310" width="150" height="50" as="geometry" />
        </mxCell>
        <mxCell id="J2u4H_Q9Re1nwNwx0uTC-3" value="" style="endArrow=classic;startArrow=classic;html=1;rounded=0;exitX=0.387;exitY=-0.012;exitDx=0;exitDy=0;exitPerimeter=0;entryX=0.5;entryY=1;entryDx=0;entryDy=0;" edge="1" parent="1" source="uoVfsjoM4IQGvuYFjnLu-20" target="J2u4H_Q9Re1nwNwx0uTC-20">
          <mxGeometry width="50" height="50" relative="1" as="geometry">
            <mxPoint x="210" y="410" as="sourcePoint" />
            <mxPoint x="260" y="360" as="targetPoint" />
          </mxGeometry>
        </mxCell>
        <mxCell id="J2u4H_Q9Re1nwNwx0uTC-4" value="&lt;span style=&quot;font-size: 18px;&quot;&gt;PostgreSQL&lt;/span&gt;" style="rounded=1;whiteSpace=wrap;html=1;" vertex="1" parent="1">
          <mxGeometry x="55" y="210" width="120" height="60" as="geometry" />
        </mxCell>
        <mxCell id="J2u4H_Q9Re1nwNwx0uTC-17" value="" style="endArrow=classic;html=1;rounded=0;entryX=0.5;entryY=1;entryDx=0;entryDy=0;exitX=0.5;exitY=0;exitDx=0;exitDy=0;" edge="1" parent="1" source="J2u4H_Q9Re1nwNwx0uTC-2" target="J2u4H_Q9Re1nwNwx0uTC-4">
          <mxGeometry width="50" height="50" relative="1" as="geometry">
            <mxPoint x="640" y="700" as="sourcePoint" />
            <mxPoint x="690" y="650" as="targetPoint" />
          </mxGeometry>
        </mxCell>
      </root>
    </mxGraphModel>
  </diagram>
</mxfile>
